<mxfile host="Electron" modified="2024-08-01T20:00:38.148Z" agent="Mozilla/5.0 (Macintosh; Intel Mac OS X 10_15_7) AppleWebKit/537.36 (KHTML, like Gecko) draw.io/24.5.3 Chrome/124.0.6367.207 Electron/30.0.6 Safari/537.36" etag="ZerHwoN4VsfWb2GhA3ei" version="24.5.3" type="device">
  <diagram name="Page-1" id="Fq_IT3cRsRbAAjP9Kw1j">
    <mxGraphModel dx="1242" dy="907" grid="1" gridSize="10" guides="1" tooltips="1" connect="1" arrows="1" fold="1" page="1" pageScale="1" pageWidth="850" pageHeight="1100" math="0" shadow="0">
      <root>
        <mxCell id="0" />
        <mxCell id="1" parent="0" />
        <mxCell id="D4Tnf9k96LVM3l-Jxc9c-31" value="" style="rounded=0;whiteSpace=wrap;html=1;movable=0;resizable=0;rotatable=0;deletable=0;editable=0;locked=1;connectable=0;" vertex="1" parent="1">
          <mxGeometry x="275" y="450" width="555" height="250" as="geometry" />
        </mxCell>
        <mxCell id="D4Tnf9k96LVM3l-Jxc9c-33" style="edgeStyle=orthogonalEdgeStyle;rounded=0;orthogonalLoop=1;jettySize=auto;html=1;entryX=0.5;entryY=0;entryDx=0;entryDy=0;movable=0;resizable=0;rotatable=0;deletable=0;editable=0;locked=1;connectable=0;" edge="1" parent="1" source="D4Tnf9k96LVM3l-Jxc9c-30" target="D4Tnf9k96LVM3l-Jxc9c-23">
          <mxGeometry relative="1" as="geometry" />
        </mxCell>
        <mxCell id="D4Tnf9k96LVM3l-Jxc9c-30" value="" style="rounded=0;whiteSpace=wrap;html=1;movable=0;resizable=0;rotatable=0;deletable=0;editable=0;locked=1;connectable=0;" vertex="1" parent="1">
          <mxGeometry x="345" y="90" width="415" height="270" as="geometry" />
        </mxCell>
        <mxCell id="D4Tnf9k96LVM3l-Jxc9c-1" value="Command (Request)" style="swimlane;fontStyle=0;childLayout=stackLayout;horizontal=1;startSize=30;horizontalStack=0;resizeParent=1;resizeParentMax=0;resizeLast=0;collapsible=1;marginBottom=0;whiteSpace=wrap;html=1;movable=0;resizable=0;rotatable=0;deletable=0;editable=0;locked=1;connectable=0;" vertex="1" parent="1">
          <mxGeometry x="480" y="120" width="140" height="60" as="geometry" />
        </mxCell>
        <mxCell id="D4Tnf9k96LVM3l-Jxc9c-2" value="&lt;div&gt;&lt;span style=&quot;background-color: initial;&quot;&gt;execute()&lt;/span&gt;&lt;br&gt;&lt;/div&gt;" style="text;strokeColor=none;fillColor=none;align=left;verticalAlign=middle;spacingLeft=4;spacingRight=4;overflow=hidden;points=[[0,0.5],[1,0.5]];portConstraint=eastwest;rotatable=0;whiteSpace=wrap;html=1;movable=0;resizable=0;deletable=0;editable=0;locked=1;connectable=0;" vertex="1" parent="D4Tnf9k96LVM3l-Jxc9c-1">
          <mxGeometry y="30" width="140" height="30" as="geometry" />
        </mxCell>
        <mxCell id="D4Tnf9k96LVM3l-Jxc9c-11" value="" style="edgeStyle=orthogonalEdgeStyle;rounded=0;orthogonalLoop=1;jettySize=auto;html=1;movable=0;resizable=0;rotatable=0;deletable=0;editable=0;locked=1;connectable=0;" edge="1" parent="1" source="D4Tnf9k96LVM3l-Jxc9c-5" target="D4Tnf9k96LVM3l-Jxc9c-2">
          <mxGeometry relative="1" as="geometry" />
        </mxCell>
        <mxCell id="D4Tnf9k96LVM3l-Jxc9c-5" value="CommandSpecific_one" style="swimlane;fontStyle=0;childLayout=stackLayout;horizontal=1;startSize=30;horizontalStack=0;resizeParent=1;resizeParentMax=0;resizeLast=0;collapsible=1;marginBottom=0;whiteSpace=wrap;html=1;movable=0;resizable=0;rotatable=0;deletable=0;editable=0;locked=1;connectable=0;" vertex="1" parent="1">
          <mxGeometry x="370" y="260" width="155" height="70" as="geometry" />
        </mxCell>
        <mxCell id="D4Tnf9k96LVM3l-Jxc9c-6" value="&lt;div&gt;device&lt;br&gt;&lt;/div&gt;execute()" style="text;strokeColor=none;fillColor=none;align=left;verticalAlign=middle;spacingLeft=4;spacingRight=4;overflow=hidden;points=[[0,0.5],[1,0.5]];portConstraint=eastwest;rotatable=0;whiteSpace=wrap;html=1;movable=0;resizable=0;deletable=0;editable=0;locked=1;connectable=0;" vertex="1" parent="D4Tnf9k96LVM3l-Jxc9c-5">
          <mxGeometry y="30" width="155" height="40" as="geometry" />
        </mxCell>
        <mxCell id="D4Tnf9k96LVM3l-Jxc9c-9" value="CommandSpecific_two" style="swimlane;fontStyle=0;childLayout=stackLayout;horizontal=1;startSize=30;horizontalStack=0;resizeParent=1;resizeParentMax=0;resizeLast=0;collapsible=1;marginBottom=0;whiteSpace=wrap;html=1;movable=0;resizable=0;rotatable=0;deletable=0;editable=0;locked=1;connectable=0;" vertex="1" parent="1">
          <mxGeometry x="595" y="260" width="140" height="70" as="geometry" />
        </mxCell>
        <mxCell id="D4Tnf9k96LVM3l-Jxc9c-10" value="&lt;div&gt;device&lt;br&gt;&lt;/div&gt;execute&lt;span style=&quot;background-color: initial;&quot;&gt;()&lt;/span&gt;" style="text;strokeColor=none;fillColor=none;align=left;verticalAlign=middle;spacingLeft=4;spacingRight=4;overflow=hidden;points=[[0,0.5],[1,0.5]];portConstraint=eastwest;rotatable=0;whiteSpace=wrap;html=1;movable=0;resizable=0;deletable=0;editable=0;locked=1;connectable=0;" vertex="1" parent="D4Tnf9k96LVM3l-Jxc9c-9">
          <mxGeometry y="30" width="140" height="40" as="geometry" />
        </mxCell>
        <mxCell id="D4Tnf9k96LVM3l-Jxc9c-12" style="edgeStyle=orthogonalEdgeStyle;rounded=0;orthogonalLoop=1;jettySize=auto;html=1;entryX=1.021;entryY=0.233;entryDx=0;entryDy=0;entryPerimeter=0;movable=0;resizable=0;rotatable=0;deletable=0;editable=0;locked=1;connectable=0;" edge="1" parent="1" source="D4Tnf9k96LVM3l-Jxc9c-9" target="D4Tnf9k96LVM3l-Jxc9c-2">
          <mxGeometry relative="1" as="geometry" />
        </mxCell>
        <mxCell id="D4Tnf9k96LVM3l-Jxc9c-13" value="Device (Receiver)" style="swimlane;fontStyle=0;childLayout=stackLayout;horizontal=1;startSize=30;horizontalStack=0;resizeParent=1;resizeParentMax=0;resizeLast=0;collapsible=1;marginBottom=0;whiteSpace=wrap;html=1;movable=0;resizable=0;rotatable=0;deletable=0;editable=0;locked=1;connectable=0;" vertex="1" parent="1">
          <mxGeometry x="475" y="470" width="140" height="60" as="geometry" />
        </mxCell>
        <mxCell id="D4Tnf9k96LVM3l-Jxc9c-14" value="turnOn()&lt;div&gt;turnOff()&lt;/div&gt;" style="text;strokeColor=none;fillColor=none;align=left;verticalAlign=middle;spacingLeft=4;spacingRight=4;overflow=hidden;points=[[0,0.5],[1,0.5]];portConstraint=eastwest;rotatable=0;whiteSpace=wrap;html=1;movable=0;resizable=0;deletable=0;editable=0;locked=1;connectable=0;" vertex="1" parent="D4Tnf9k96LVM3l-Jxc9c-13">
          <mxGeometry y="30" width="140" height="30" as="geometry" />
        </mxCell>
        <mxCell id="D4Tnf9k96LVM3l-Jxc9c-29" style="edgeStyle=orthogonalEdgeStyle;rounded=0;orthogonalLoop=1;jettySize=auto;html=1;entryX=1;entryY=0.25;entryDx=0;entryDy=0;movable=0;resizable=0;rotatable=0;deletable=0;editable=0;locked=1;connectable=0;" edge="1" parent="1" source="D4Tnf9k96LVM3l-Jxc9c-17" target="D4Tnf9k96LVM3l-Jxc9c-13">
          <mxGeometry relative="1" as="geometry" />
        </mxCell>
        <mxCell id="D4Tnf9k96LVM3l-Jxc9c-17" value="DeviceSpecific_two" style="swimlane;fontStyle=0;childLayout=stackLayout;horizontal=1;startSize=30;horizontalStack=0;resizeParent=1;resizeParentMax=0;resizeLast=0;collapsible=1;marginBottom=0;whiteSpace=wrap;html=1;movable=0;resizable=0;rotatable=0;deletable=0;editable=0;locked=1;connectable=0;" vertex="1" parent="1">
          <mxGeometry x="565" y="610" width="240" height="60" as="geometry" />
        </mxCell>
        <mxCell id="D4Tnf9k96LVM3l-Jxc9c-18" value="&lt;span style=&quot;text-align: center;&quot;&gt;deviceSpecificHiddenFunctionality_two()&lt;/span&gt;" style="text;strokeColor=none;fillColor=none;align=left;verticalAlign=middle;spacingLeft=4;spacingRight=4;overflow=hidden;points=[[0,0.5],[1,0.5]];portConstraint=eastwest;rotatable=0;whiteSpace=wrap;html=1;movable=0;resizable=0;deletable=0;editable=0;locked=1;connectable=0;" vertex="1" parent="D4Tnf9k96LVM3l-Jxc9c-17">
          <mxGeometry y="30" width="240" height="30" as="geometry" />
        </mxCell>
        <mxCell id="D4Tnf9k96LVM3l-Jxc9c-28" style="edgeStyle=orthogonalEdgeStyle;rounded=0;orthogonalLoop=1;jettySize=auto;html=1;entryX=0;entryY=0.25;entryDx=0;entryDy=0;movable=0;resizable=0;rotatable=0;deletable=0;editable=0;locked=1;connectable=0;" edge="1" parent="1" source="D4Tnf9k96LVM3l-Jxc9c-20" target="D4Tnf9k96LVM3l-Jxc9c-13">
          <mxGeometry relative="1" as="geometry" />
        </mxCell>
        <mxCell id="D4Tnf9k96LVM3l-Jxc9c-20" value="DeviceSpecific_one" style="swimlane;fontStyle=0;childLayout=stackLayout;horizontal=1;startSize=30;horizontalStack=0;resizeParent=1;resizeParentMax=0;resizeLast=0;collapsible=1;marginBottom=0;whiteSpace=wrap;html=1;movable=0;resizable=0;rotatable=0;deletable=0;editable=0;locked=1;connectable=0;" vertex="1" parent="1">
          <mxGeometry x="295" y="610" width="240" height="60" as="geometry" />
        </mxCell>
        <mxCell id="D4Tnf9k96LVM3l-Jxc9c-21" value="&lt;div style=&quot;text-align: center;&quot;&gt;&lt;span style=&quot;background-color: initial;&quot;&gt;deviceSpecificHiddenFunctionality_one()&lt;/span&gt;&lt;/div&gt;" style="text;strokeColor=none;fillColor=none;align=left;verticalAlign=middle;spacingLeft=4;spacingRight=4;overflow=hidden;points=[[0,0.5],[1,0.5]];portConstraint=eastwest;rotatable=0;whiteSpace=wrap;html=1;movable=0;resizable=0;deletable=0;editable=0;locked=1;connectable=0;" vertex="1" parent="D4Tnf9k96LVM3l-Jxc9c-20">
          <mxGeometry y="30" width="240" height="30" as="geometry" />
        </mxCell>
        <mxCell id="D4Tnf9k96LVM3l-Jxc9c-34" style="edgeStyle=orthogonalEdgeStyle;rounded=0;orthogonalLoop=1;jettySize=auto;html=1;entryX=0;entryY=0.5;entryDx=0;entryDy=0;movable=0;resizable=0;rotatable=0;deletable=0;editable=0;locked=1;connectable=0;" edge="1" parent="1" source="D4Tnf9k96LVM3l-Jxc9c-23" target="D4Tnf9k96LVM3l-Jxc9c-31">
          <mxGeometry relative="1" as="geometry">
            <Array as="points">
              <mxPoint x="130" y="575" />
            </Array>
          </mxGeometry>
        </mxCell>
        <mxCell id="D4Tnf9k96LVM3l-Jxc9c-23" value="RemoteControl (Invoker)" style="swimlane;fontStyle=0;childLayout=stackLayout;horizontal=1;startSize=30;horizontalStack=0;resizeParent=1;resizeParentMax=0;resizeLast=0;collapsible=1;marginBottom=0;whiteSpace=wrap;html=1;movable=0;resizable=0;rotatable=0;deletable=0;editable=0;locked=1;connectable=0;" vertex="1" parent="1">
          <mxGeometry x="60" y="350" width="140" height="80" as="geometry" />
        </mxCell>
        <mxCell id="D4Tnf9k96LVM3l-Jxc9c-24" value="&lt;div&gt;command&lt;/div&gt;setCommand()&lt;div&gt;triggerCommand()&lt;/div&gt;" style="text;strokeColor=none;fillColor=none;align=left;verticalAlign=middle;spacingLeft=4;spacingRight=4;overflow=hidden;points=[[0,0.5],[1,0.5]];portConstraint=eastwest;rotatable=0;whiteSpace=wrap;html=1;movable=0;resizable=0;deletable=0;editable=0;locked=1;connectable=0;" vertex="1" parent="D4Tnf9k96LVM3l-Jxc9c-23">
          <mxGeometry y="30" width="140" height="50" as="geometry" />
        </mxCell>
        <mxCell id="D4Tnf9k96LVM3l-Jxc9c-35" value="Command" style="text;html=1;align=center;verticalAlign=middle;whiteSpace=wrap;rounded=0;" vertex="1" parent="1">
          <mxGeometry x="140" y="190" width="60" height="30" as="geometry" />
        </mxCell>
        <mxCell id="D4Tnf9k96LVM3l-Jxc9c-36" value="Execute command" style="text;html=1;align=center;verticalAlign=middle;whiteSpace=wrap;rounded=0;" vertex="1" parent="1">
          <mxGeometry x="140" y="580" width="60" height="30" as="geometry" />
        </mxCell>
        <mxCell id="D4Tnf9k96LVM3l-Jxc9c-39" value="" style="endArrow=classic;html=1;rounded=0;" edge="1" parent="1">
          <mxGeometry relative="1" as="geometry">
            <mxPoint x="550" y="360" as="sourcePoint" />
            <mxPoint x="550" y="450" as="targetPoint" />
          </mxGeometry>
        </mxCell>
        <mxCell id="D4Tnf9k96LVM3l-Jxc9c-40" value="Separated" style="edgeLabel;resizable=0;html=1;;align=center;verticalAlign=middle;" connectable="0" vertex="1" parent="D4Tnf9k96LVM3l-Jxc9c-39">
          <mxGeometry relative="1" as="geometry" />
        </mxCell>
      </root>
    </mxGraphModel>
  </diagram>
</mxfile>
